<svg width="1200" height="600" viewBox="0 0 1200 600" fill="none" xmlns="http://www.w3.org/2000/svg">
<g clip-path="url(#clip0_679_11049)">
<path d="M288 288H256V472.095H288V288Z" fill="#DCE1EE"/>
<path d="M272 416C274.209 416 276 414.209 276 412C276 409.791 274.209 408 272 408C269.791 408 268 409.791 268 412C268 414.209 269.791 416 272 416Z" fill="white"/>
<path d="M272 440C274.209 440 276 438.209 276 436C276 433.791 274.209 432 272 432C269.791 432 268 433.791 268 436C268 438.209 269.791 440 272 440Z" fill="white"/>
<path d="M316 316H348" stroke="#0F62FE" stroke-width="8" stroke-linecap="round"/>
<path d="M368 316H416" stroke="#0F62FE" stroke-width="8" stroke-linecap="round"/>
<path d="M316 340H332" stroke="#A6C8FF" stroke-width="8" stroke-linecap="round"/>
<path d="M344 388H364" stroke="#A6C8FF" stroke-width="8" stroke-linecap="round"/>
<path d="M384 388H460" stroke="#A6C8FF" stroke-width="8" stroke-linecap="round"/>
<path d="M316 412H332" stroke="#0F62FE" stroke-width="8" stroke-linecap="round"/>
<path d="M316 436H332" stroke="#0F62FE" stroke-width="8" stroke-linecap="round"/>
<path d="M352 412H400" stroke="#C1C7CD" stroke-width="8" stroke-linecap="round"/>
<path d="M344 364H408" stroke="#C1C7CD" stroke-width="8" stroke-linecap="round"/>
<path d="M396 340H436" stroke="#C1C7CD" stroke-width="8" stroke-linecap="round"/>
<path d="M272 320C274.209 320 276 318.209 276 316C276 313.791 274.209 312 272 312C269.791 312 268 313.791 268 316C268 318.209 269.791 320 272 320Z" fill="white"/>
<path d="M272 344C274.209 344 276 342.209 276 340C276 337.791 274.209 336 272 336C269.791 336 268 337.791 268 340C268 342.209 269.791 344 272 344Z" fill="white"/>
<path d="M272 368C274.209 368 276 366.209 276 364C276 361.791 274.209 360 272 360C269.791 360 268 361.791 268 364C268 366.209 269.791 368 272 368Z" fill="white"/>
<path d="M272 392C274.209 392 276 390.209 276 388C276 385.791 274.209 384 272 384C269.791 384 268 385.791 268 388C268 390.209 269.791 392 272 392Z" fill="white"/>
<path d="M352 340H376" stroke="#A6C8FF" stroke-width="8" stroke-linecap="round"/>
<path d="M487.695 392.957V464C487.695 470.68 482.28 476.095 475.6 476.095H264.095C257.415 476.095 252 470.68 252 464V300.095C252 293.415 257.415 288 264.095 288H475.6C482.28 288 487.695 293.415 487.695 300.095V336" stroke="#262626" stroke-width="8"/>
<path d="M696 540C837.385 540 952 534.627 952 528C952 521.373 837.385 516 696 516C554.615 516 440 521.373 440 528C440 534.627 554.615 540 696 540Z" fill="#DCE1EE"/>
<path d="M512 84H484V96H512V84Z" stroke="#C1C7CD" stroke-width="7.5" stroke-linecap="round" stroke-linejoin="round"/>
<path d="M856 272L828 299.477L816 288" stroke="#C1C7CD" stroke-width="8"/>
<path d="M482.594 455.926C474.72 455.926 468.127 450.009 467.258 442.162C467.095 440.692 463.592 405.881 492.566 383C495.279 380.858 498.674 379.679 502.126 379.679C506.879 379.679 511.293 381.813 514.238 385.534C516.795 388.767 517.94 392.8 517.46 396.892C516.981 400.982 514.936 404.643 511.702 407.196C496.274 419.38 497.871 438.118 497.946 438.91C498.395 442.946 497.222 446.968 494.639 450.174C492.065 453.37 488.391 455.38 484.296 455.832C483.734 455.895 483.162 455.926 482.594 455.926Z" fill="#DDE1E6"/>
<path d="M502.126 383.678C505.502 383.678 508.845 385.165 511.102 388.017C515.017 392.965 514.175 400.146 509.223 404.057C492.095 417.583 493.881 438.41 493.965 439.29C494.659 445.559 490.131 451.163 483.856 451.857C483.433 451.904 483.011 451.926 482.594 451.926C476.84 451.926 471.881 447.567 471.233 441.721C471.08 440.341 467.801 407.654 495.045 386.14C497.143 384.482 499.644 383.678 502.126 383.678ZM502.126 375.678C497.778 375.678 493.503 377.164 490.087 379.861C477.461 389.831 468.811 403.596 465.073 419.668C462.219 431.937 463.165 441.549 463.282 442.604C464.376 452.478 472.678 459.926 482.594 459.926C483.309 459.926 484.029 459.887 484.735 459.808C489.888 459.239 494.511 456.708 497.754 452.683C500.991 448.664 502.471 443.629 501.926 438.497C501.833 437.42 500.67 421.005 514.181 410.336C518.254 407.119 520.829 402.51 521.433 397.357C522.037 392.203 520.596 387.123 517.375 383.053C513.666 378.366 508.109 375.678 502.126 375.678Z" fill="#262626"/>
<path d="M659.914 393.084C653.026 393.084 646.917 388.45 645.06 381.816C643.948 377.849 644.451 373.687 646.474 370.097C648.495 366.508 651.795 363.921 655.765 362.812C697.875 351.043 700.296 320.762 700.378 319.479L704.37 319.715L704.541 315.848L731.378 317.037L731.2 321.034C731.104 323.214 728.087 374.623 664.075 392.512C662.719 392.892 661.319 393.084 659.914 393.084Z" fill="#DDE1E6"/>
<path d="M704.37 319.735L704.364 319.844L727.204 320.856C727.112 322.918 724.256 371.54 662.999 388.66C661.97 388.947 660.933 389.084 659.914 389.084C654.915 389.084 650.324 385.783 648.911 380.738C647.211 374.665 650.761 368.363 656.841 366.664C701.655 354.14 704.28 321.133 704.37 319.735ZM704.719 311.851L704.371 319.695L697.366 319.28L696.387 319.217C696.306 320.386 693.942 347.989 654.688 358.959C649.689 360.356 645.535 363.614 642.989 368.134C640.441 372.655 639.808 377.897 641.207 382.894C643.547 391.249 651.24 397.084 659.914 397.084C661.682 397.084 663.445 396.842 665.153 396.364C699.532 386.756 716.658 367.536 724.971 353.104C734.246 337.001 735.127 322.781 735.196 321.212L735.552 313.219L727.559 312.864L704.719 311.851Z" fill="#262626"/>
<path d="M677.761 522C677.761 499.296 659.335 480.891 636.607 480.891C613.878 480.891 595.453 499.296 595.453 522H677.761Z" fill="#0F62FE" stroke="#262626" stroke-width="8" stroke-linejoin="round"/>
<path d="M571.549 522C571.549 499.296 553.124 480.891 530.396 480.891C507.667 480.891 489.038 499.296 489.038 522H571.549Z" fill="#0F62FE" stroke="#262626" stroke-width="8" stroke-linejoin="round"/>
<path d="M578.212 454.085C554.626 456.146 533.834 438.718 531.77 415.158L528.8 381.244L631.292 372.287L634.263 406.201C636.326 429.761 618.879 450.531 595.294 452.592L578.212 454.085Z" fill="#F2F4F8" stroke="#262626" stroke-width="8" stroke-linejoin="round"/>
<path d="M567.826 425.063L556 414.249L566.813 402.424" stroke="#0F62FE" stroke-width="8" stroke-linecap="round" stroke-linejoin="round"/>
<path d="M600.772 400.906L612.598 411.719L601.784 423.545" stroke="#0F62FE" stroke-width="8" stroke-linecap="round" stroke-linejoin="round"/>
<path d="M589.812 393.598L578.078 432.402" stroke="#0F62FE" stroke-width="8" stroke-linecap="round" stroke-linejoin="round"/>
<path d="M696.265 253.29L675.745 254.934C671.027 255.311 667.509 259.442 667.887 264.159L670.621 298.299C670.999 303.016 675.13 306.534 679.847 306.156L700.367 304.513C705.085 304.135 708.603 300.005 708.225 295.287L705.491 261.148C705.113 256.43 700.982 252.912 696.265 253.29Z" fill="#DDE1E6" stroke="#262626" stroke-width="8" stroke-miterlimit="10"/>
<path d="M477.481 270.813L456.961 272.456C452.244 272.834 448.726 276.964 449.104 281.682L451.838 315.821C452.216 320.539 456.346 324.057 461.064 323.679L481.584 322.036C486.301 321.658 489.819 317.527 489.441 312.81L486.707 278.67C486.329 273.953 482.199 270.435 477.481 270.813Z" fill="#DDE1E6" stroke="#262626" stroke-width="8" stroke-miterlimit="10"/>
<path d="M640.015 216.664L506.665 227.344C484.017 229.158 467.128 248.988 468.942 271.636L473.039 322.8C474.853 345.448 494.683 362.337 517.331 360.524L650.681 349.843C673.329 348.03 690.218 328.199 688.404 305.551L684.307 254.387C682.493 231.74 662.663 214.85 640.015 216.664Z" fill="#F2F4F8"/>
<path d="M490.138 321.453L486.028 270.246C484.211 247.61 501.108 227.789 523.768 225.974L506.675 227.343C484.015 229.158 467.119 248.979 468.935 271.615L473.045 322.822C474.862 345.457 494.705 362.336 517.365 360.521L534.457 359.152C511.797 360.967 491.955 344.088 490.138 321.453Z" fill="#DDE1E6"/>
<path d="M667.208 255.735L671.318 306.942C673.135 329.577 656.238 349.398 633.578 351.213L650.671 349.844C673.331 348.029 690.228 328.208 688.411 305.573L684.301 254.366C682.484 231.73 662.641 214.852 639.981 216.667L622.889 218.036C645.549 216.221 665.391 233.099 667.208 255.735Z" fill="#DDE1E6"/>
<path d="M640.015 216.664L506.665 227.344C484.017 229.158 467.128 248.988 468.942 271.636L473.039 322.8C474.853 345.448 494.683 362.337 517.331 360.524L650.681 349.843C673.329 348.03 690.218 328.199 688.404 305.551L684.307 254.387C682.493 231.74 662.663 214.85 640.015 216.664Z" stroke="#262626" stroke-width="8" stroke-miterlimit="10"/>
<path d="M556.2 326.48C577.396 333.374 587.72 333.406 607.477 322.373" stroke="#262626" stroke-width="8" stroke-linecap="round"/>
<path d="M623.926 259.408C636.546 258.398 647.638 268.177 648.689 281.268C649.739 294.358 640.348 305.778 627.729 306.789C615.11 307.8 604.017 298.02 602.966 284.93C601.916 271.839 611.307 260.419 623.926 259.408Z" fill="#262626"/>
<path d="M630.613 284.415C633.927 284.415 636.614 281.731 636.614 278.42C636.614 275.109 633.927 272.424 630.613 272.424C627.298 272.424 624.611 275.109 624.611 278.42C624.611 281.731 627.298 284.415 630.613 284.415Z" fill="#F4F4F4"/>
<path d="M528.208 267.075C540.828 266.064 551.92 275.843 552.971 288.934C554.022 302.025 544.631 313.445 532.011 314.455C519.393 315.466 508.299 305.687 507.249 292.596C506.198 279.505 515.59 268.085 528.208 267.075Z" fill="#262626"/>
<path d="M534.895 292.081C538.209 292.081 540.897 289.397 540.897 286.086C540.897 282.775 538.209 280.091 534.895 280.091C531.58 280.091 528.893 282.775 528.893 286.086C528.893 289.397 531.58 292.081 534.895 292.081Z" fill="#F4F4F4"/>
<path d="M695.172 238.022C699.298 237.692 702.865 235.017 704.335 231.152C706.754 224.791 702.696 217.819 695.965 216.772L684.994 213.856C680.362 156.142 627.247 113.309 566.36 118.186C505.472 123.062 459.869 173.802 464.501 231.516L454.135 236.141C447.657 238.246 444.763 245.774 448.166 251.669C450.234 255.251 454.181 257.323 458.307 256.993L695.172 238.022Z" fill="url(#paint0_linear_679_11049)" stroke="#262626" stroke-width="8" stroke-linejoin="round"/>
<path d="M490.591 224.374C555.738 210.78 592.4 207.463 658.098 210.959" stroke="#262626" stroke-width="8" stroke-linecap="round"/>
<path d="M540.974 187.69L535.767 122.809C535.388 118.094 538.908 113.965 543.628 113.587L588.068 110.028C592.788 109.65 596.921 113.166 597.299 117.88L602.507 182.762L540.974 187.69Z" fill="url(#paint1_linear_679_11049)"/>
<path d="M540.974 187.69L535.767 122.809C535.388 118.094 538.908 113.965 543.628 113.587L588.068 110.028C592.788 109.65 596.921 113.166 597.299 117.88L602.507 182.762" stroke="#262626" stroke-width="8" stroke-miterlimit="10" stroke-linecap="round"/>
<path d="M440 455.956C445.479 437.845 464.619 427.599 482.749 433.072C500.88 438.545 511.136 457.664 505.657 475.775L440 455.956Z" fill="#F2F4F8" stroke="#262626" stroke-width="8" stroke-linejoin="round"/>
<path d="M717.733 294.838L749.412 281.716C756.618 299.075 748.248 319.284 730.869 326.483C713.491 333.681 693.26 325.32 686.054 307.96C682.548 299.516 682.568 290.013 686.109 281.583L717.733 294.838Z" fill="#F2F4F8" stroke="#262626" stroke-width="8" stroke-linejoin="round"/>
<path d="M780.727 148L740 190H772L763.273 220L804 178H772L780.727 148Z" stroke="#C1C7CD" stroke-width="8" stroke-linecap="round" stroke-linejoin="round"/>
<path d="M352 224H400" stroke="#C1C7CD" stroke-width="8" stroke-linecap="round"/>
<path d="M368 244H400" stroke="#C1C7CD" stroke-width="8" stroke-linecap="round"/>
<path d="M332 112H316V160H332" stroke="#0F62FE" stroke-width="8" stroke-linecap="round" stroke-linejoin="round"/>
<path d="M316 136H304" stroke="#0F62FE" stroke-width="8" stroke-linecap="round" stroke-linejoin="round"/>
<path d="M356 160H372V112H356" stroke="#0F62FE" stroke-width="8" stroke-linecap="round" stroke-linejoin="round"/>
<path d="M372 136H384" stroke="#0F62FE" stroke-width="8" stroke-linecap="round" stroke-linejoin="round"/>
<path d="M638 502H930V516C930 519.312 927.311 522 924 522H644C640.688 522 638 519.312 638 516V502Z" fill="#DCE1EE" stroke="#262626" stroke-width="8" stroke-linejoin="round"/>
<path d="M716 502H740V516C740 519.314 737.314 522 734 522H716" fill="#DCE1EE"/>
<path d="M716 502H740V516C740 519.314 737.314 522 734 522H716" stroke="#262626" stroke-width="8" stroke-linejoin="round"/>
<path d="M979.995 347H798.103C795.556 347 793.286 348.608 792.442 351.011L744.658 487.011C744.606 487.16 744.571 487.309 744.531 487.458L740.121 500.011C738.75 503.913 741.646 508 745.782 508H927.674C930.221 508 932.491 506.392 933.335 503.989L981.119 367.989C981.171 367.84 981.206 367.691 981.246 367.541L985.656 354.989C987.027 351.087 984.131 347 979.995 347Z" fill="#DCE1EE"/>
<path d="M754.497 486.458C754.537 486.309 754.572 486.16 754.624 486.011L800.839 354.474C802.623 349.397 807.418 346 812.799 346H798.326C795.779 346 793.51 347.608 792.666 350.011L744.882 486.011C744.83 486.16 744.795 486.309 744.755 486.458L740.344 499.011C738.973 502.913 741.869 507 746.005 507H769.052C758.417 507 750.971 496.492 754.497 486.458Z" fill="#BEC5D9"/>
<path d="M754.497 486.458C754.537 486.309 754.572 486.16 754.624 486.011L800.839 354.474C802.623 349.397 807.418 346 812.799 346H798.326C795.779 346 793.51 347.608 792.666 350.011L744.882 486.011C744.83 486.16 744.795 486.309 744.755 486.458L740.344 499.011C738.973 502.913 741.869 507 746.005 507H769.052C758.417 507 750.971 496.492 754.497 486.458Z" fill="#BEC5D9"/>
<path d="M875.681 440.16C880.289 430.807 878.391 420.45 871.442 417.027C864.493 413.603 855.124 418.41 850.517 427.763C845.909 437.116 847.807 447.473 854.756 450.897C861.705 454.32 871.073 449.513 875.681 440.16Z" fill="#262626"/>
<path d="M979.995 347H798.103C795.556 347 793.286 348.608 792.442 351.011L744.658 487.011C744.606 487.16 744.571 487.309 744.531 487.458L740.121 500.011C738.75 503.913 741.646 508 745.782 508H927.674C930.221 508 932.491 506.392 933.335 503.989L981.119 367.989C981.171 367.84 981.206 367.691 981.246 367.541L985.656 354.989C987.027 351.087 984.131 347 979.995 347Z" stroke="#262626" stroke-width="8" stroke-linejoin="round"/>
<path d="M928 205.778L937.15 232.889H989L928 205.778Z" stroke="#0F62FE" stroke-width="8" stroke-linecap="round" stroke-linejoin="round"/>
<path d="M989 232.889L928 260L937.15 232.889" stroke="#0F62FE" stroke-width="8" stroke-linecap="round" stroke-linejoin="round"/>
<path d="M228 192V227.2" stroke="#C1C7CD" stroke-width="8" stroke-linecap="round" stroke-linejoin="round"/>
<path d="M244 220L212 200.8" stroke="#C1C7CD" stroke-width="8" stroke-linecap="round" stroke-linejoin="round"/>
<path d="M244 200.8L212 220" stroke="#C1C7CD" stroke-width="8" stroke-linecap="round" stroke-linejoin="round"/>
</g>
<defs>
<linearGradient id="paint0_linear_679_11049" x1="502.968" y1="171.265" x2="657.966" y2="261.623" gradientUnits="userSpaceOnUse">
<stop stop-color="#0F62FE"/>
<stop offset="1" stop-color="#A56EFF"/>
</linearGradient>
<linearGradient id="paint1_linear_679_11049" x1="567.37" y1="130.753" x2="571.589" y2="183.37" gradientUnits="userSpaceOnUse">
<stop stop-color="#0F62FE"/>
<stop offset="0.1314" stop-color="#135FEC" stop-opacity="0.8292"/>
<stop offset="0.3726" stop-color="#1B5ACF" stop-opacity="0.5381"/>
<stop offset="0.5887" stop-color="#2156B7" stop-opacity="0.3069"/>
<stop offset="0.7719" stop-color="#2554A7" stop-opacity="0.1402"/>
<stop offset="0.9148" stop-color="#28529C" stop-opacity="0.0378"/>
<stop offset="1" stop-color="#295299" stop-opacity="0"/>
</linearGradient>
<clipPath id="clip0_679_11049">
<rect width="1200" height="600" fill="white"/>
</clipPath>
</defs>
</svg>
